<svg xmlns="http://www.w3.org/2000/svg" version="1.1" xmlns:xlink="http://www.w3.org/1999/xlink" xmlns:svgjs="http://svgjs.com/svgjs"
    height="228.12000274658203" width="332.6995505315718">
    <g id="SvgjsG1023" transform="translate(0,0) scale(1.6342849343927968)" rel="inversefill" name="filled_container" xmlns:name="filledContainer_inversefill"
        fill="#162220">
        <defs xmlns="http://www.w3.org/2000/svg"></defs>
        <g xmlns="http://www.w3.org/2000/svg">
            <path style="fill:;" d="M177.937,21.107c-7.555-2.331-63.43-11.68-76.135-12.183c-12.706,0.503-68.578,9.852-76.136,12.183    c-0.273,15.579-15.28,48.684-15.28,48.684l0,0l0,0c0,0,15.008,33.106,15.28,48.685c7.558,2.33,63.43,11.68,76.136,12.183    c12.705-0.503,68.58-9.854,76.135-12.183c0.273-15.579,15.28-48.685,15.28-48.685l0,0l0,0    C193.217,69.79,178.21,36.685,177.937,21.107z"></path>
            <path style="fill:;" d="M202.322,67.019l0-0.001c-4.206-9.257-15.17-35.968-15.385-48.239l-0.085-4.588l-3.973-1.228    c-7.627-2.351-67.123-12.412-80.873-12.953L101.804,0l-0.211,0.01C87.828,0.552,28.345,10.613,20.726,12.965l-3.979,1.227    l-0.081,4.588C16.456,30.997,5.491,57.741,1.284,67.015l-1.261,2.778l0.001,0.002L0,69.849l0.164,0.253l1.12,2.463    c4.207,9.275,15.172,36.021,15.383,48.237l0.081,4.589l3.978,1.228c7.621,2.351,67.104,12.411,80.859,12.953l0.219,0.012    l0.192-0.012c13.763-0.541,73.258-10.602,80.883-12.954l3.972-1.227l0.085-4.589c0.214-12.266,11.178-38.98,15.385-48.24    l1.254-2.771L202.322,67.019z M196.555,76.155c-4.281,10.137-13.221,32.679-13.435,44.571l-0.023,1.544l-1.267,0.391    c-7.527,2.319-66.349,12.257-79.963,12.797l-0.049,0.002l-0.075-0.001c-13.623-0.541-72.443-10.479-79.97-12.797l-1.268-0.392    l-0.026-1.545c-0.215-12.279-9.748-35.933-13.837-45.533c-1.184-2.779-1.931-4.431-1.938-4.446l-0.434-0.955l0.432-0.951    c0.07-0.153,0.839-1.865,1.939-4.449c4.089-9.6,13.622-33.255,13.837-45.533l0.026-1.545l1.268-0.391    c7.534-2.32,66.356-12.258,79.971-12.798l0.031-0.003l0.083,0.003c13.615,0.54,72.44,10.477,79.973,12.797l1.267,0.392l0.023,1.546    c0.213,11.888,9.154,34.431,13.435,44.569h-0.007l0.411,0.964c1.167,2.737,1.908,4.383,1.938,4.445l0.435,0.955l-0.435,0.953    c-0.066,0.142-0.822,1.831-1.938,4.448l-0.406,0.964H196.555z"></path>
        </g>
    </g>
    <g id="SvgjsG1024" rel="mainfill" name="main_text" xmlns:name="mainText_mainfill" fill="#ffffff" transform="translate(103.16578287992164,134.4000005722046)">
        <path d="M1.984 38.72 l0 -22.72 l4.256 0 l0 0.864 s2.08 -1.248 3.648 -1.248 c4.224 0 6.304 2.304 6.304 8.256 c0 6.816 -2.368 8.512 -7.264 8.512 c-1.184 0 -2.656 -0.256 -2.656 -0.256 l0 6.592 l-4.288 0 z M9.056 19.456 c-1.312 0 -2.784 0.64 -2.784 0.64 l0 8.384 s1.44 0.192 2.336 0.192 c2.56 0 3.232 -1.408 3.232 -4.8 c0 -3.232 -1.088 -4.416 -2.784 -4.416 z M23.68 32 l-4.288 0 l0 -22.4 l4.288 0 l0 7.168 s2.208 -1.152 3.968 -1.152 c4.48 0 5.632 2.816 5.632 7.712 l0 8.672 l-4.288 0 l0 -8.576 c0 -2.4 -0.32 -3.968 -2.4 -3.968 c-1.408 0 -2.912 0.512 -2.912 0.512 l0 12.032 z M35.616 16 l4.224 0 l2.912 12.352 l0.736 0 l2.912 -12.352 l4.224 0 l-5.632 22.72 l-4.192 0 l1.76 -6.72 l-3.008 0 z M64.64 16.448 l-0.064 3.552 s-3.968 -0.512 -5.824 -0.512 s-2.24 0.416 -2.24 1.28 c0 0.736 0.608 0.896 3.552 1.44 c3.712 0.672 5.024 1.76 5.024 4.992 c0 3.744 -2.432 5.184 -6.432 5.184 c-2.368 0 -6.144 -0.768 -6.144 -0.768 l0.128 -3.584 s3.968 0.512 5.6 0.512 c2.048 0 2.592 -0.416 2.592 -1.248 c0 -0.704 -0.352 -1.024 -3.296 -1.504 c-3.456 -0.576 -5.28 -1.408 -5.28 -4.928 c0 -3.712 2.816 -5.216 6.176 -5.216 c2.304 0 6.208 0.8 6.208 0.8 z M68.192 32 l0 -16 l4.288 0 l0 16 l-4.288 0 z M68.192 13.952000000000002 l0 -4.352 l4.288 0 l0 4.352 l-4.288 0 z M80.736 32 l-4.288 0 l0 -22.4 l4.288 0 l0 7.168 s2.208 -1.152 3.968 -1.152 c4.48 0 5.632 2.816 5.632 7.712 l0 8.672 l-4.288 0 l0 -8.576 c0 -2.4 -0.32 -3.968 -2.4 -3.968 c-1.408 0 -2.912 0.512 -2.912 0.512 l0 12.032 z M106.39999999999999 20.992 l0 6.656 c0.064 0.96 0.192 1.344 1.056 1.504 l-0.128 3.232 c-2.144 0 -3.232 -0.224 -4.576 -1.12 c0 0 -2.304 1.12 -4.704 1.12 c-3.36 0 -4.96 -1.856 -4.96 -5.248 c0 -3.616 2.08 -4.64 5.6 -4.896 l3.424 -0.256 l0 -0.992 c0 -1.376 -0.608 -1.728 -1.888 -1.728 c-2.112 0 -6.016 0.256 -6.016 0.256 l-0.128 -2.976 s3.424 -0.928 6.496 -0.928 c4.16 0 5.824 1.632 5.824 5.376 z M102.112 24.96 l-2.912 0.256 c-1.12 0.096 -1.792 0.64 -1.792 1.792 c0 1.12 0.416 1.888 1.568 1.888 c1.376 0 3.136 -0.512 3.136 -0.512 l0 -3.424 z M114.784 32 l-4.288 0 l0 -16 l4.256 0 l0 0.896 s2.176 -1.28 4 -1.28 c4.48 0 5.632 2.816 5.632 7.712 l0 8.672 l-4.288 0 l0 -8.544 c0 -2.432 -0.32 -4 -2.4 -4 c-1.504 0 -2.912 0.576 -2.912 0.576 l0 11.968 z"></path>
    </g>
    <defs id="SvgjsDefs1022"></defs>
    <g id="SvgjsG1025" rel="mainfill" name="symbol" xmlns:name="symbol_mainfill" fill="#ffffff" transform="translate(125.23866415467478,50.888888888888886) scale(0.8222222222222222)">
        <path xmlns="http://www.w3.org/2000/svg" d="M50,95c19.1,0,32.5-16.4,32.5-40c0-11.9-3.3-24.3-9.2-33.8C67,10.7,58.7,5,50,5s-17,5.7-23.3,16.2  c-5.8,9.6-9.2,21.9-9.2,33.8C17.5,78.6,30.9,95,50,95z M50,10c14.1,0,27.5,21.9,27.5,45c0,20.6-11.3,35-27.5,35S22.5,75.6,22.5,55  C22.5,31.9,35.9,10,50,10z"></path>
        <path xmlns="http://www.w3.org/2000/svg" d="M30,57.5c1.4,0,2.5-1.1,2.5-2.5c0-19,10.7-35,17.5-35c1.4,0,2.5-1.1,2.5-2.5S51.4,15,50,15c-11.1,0-22.5,20.2-22.5,40  C27.5,56.4,28.6,57.5,30,57.5z"></path>
    </g>
</svg>